<?xml version="1.0" standalone="no"?>
<!DOCTYPE svg PUBLIC "-//W3C//DTD SVG 20010904//EN"
 "http://www.w3.org/TR/2001/REC-SVG-20010904/DTD/svg10.dtd">
<svg version="1.0" xmlns="http://www.w3.org/2000/svg"
 width="580.000000pt" height="386.000000pt" viewBox="0 0 580.000000 386.000000"
 preserveAspectRatio="xMidYMid meet">

<g transform="translate(0.000000,386.000000) scale(0.100000,-0.100000)"
fill="#000000" stroke="none">
<path d="M2920 3063 c-59 -10 -153 -47 -207 -82 -144 -93 -235 -245 -258 -434
-6 -42 -8 -46 -25 -37 -28 15 -65 12 -89 -7 -27 -22 -71 -112 -64 -130 4 -9
31 -13 102 -13 l97 0 13 -46 c33 -111 156 -249 272 -306 39 -19 48 -28 51 -53
l3 -30 192 -3 c185 -2 192 -2 203 18 6 11 8 25 5 30 -3 5 18 21 47 35 75 38
130 82 186 149 23 27 24 27 135 26 143 -2 134 -3 147 21 10 17 7 28 -15 61
-14 22 -41 46 -58 53 -18 7 -41 23 -51 34 -11 12 -24 21 -30 21 -8 0 -10 32
-8 104 5 123 -7 186 -53 282 -41 84 -40 84 -17 85 9 1 4 4 -13 8 -24 5 -31 12
-33 35 -3 21 -6 25 -12 16 -6 -10 -20 -3 -56 29 -124 109 -304 161 -464 134z
m92 -71 c-3 -36 0 -51 12 -61 19 -16 39 -5 101 54 l39 36 44 -16 c37 -15 41
-19 26 -29 -15 -11 -14 -17 10 -64 14 -28 26 -57 26 -64 0 -7 -16 -29 -36 -49
-33 -34 -34 -37 -19 -53 20 -20 36 -20 61 -1 25 19 43 19 66 -2 10 -9 35 -19
56 -22 28 -5 38 -11 40 -29 5 -35 -24 -38 -69 -7 l-40 28 -29 -21 c-16 -13
-44 -22 -63 -22 -90 0 -100 -131 -15 -193 23 -17 32 -18 69 -9 70 18 101 -8
91 -75 -2 -14 -10 -23 -21 -23 -10 0 -26 -9 -37 -21 -10 -11 -33 -27 -51 -34
-17 -7 -43 -31 -58 -53 -40 -61 -17 -92 63 -87 41 3 44 2 38 -18 -3 -12 -6
-39 -6 -59 0 -35 -3 -39 -52 -64 l-52 -26 -40 21 c-23 12 -53 29 -67 38 -23
15 -28 15 -57 0 -28 -14 -36 -14 -60 -1 -37 19 -38 19 -100 -22 l-55 -37 -51
25 c-112 55 -213 167 -259 286 l-17 42 48 0 48 0 48 -130 c63 -170 75 -180
119 -95 16 32 42 58 92 92 52 36 75 59 90 91 19 42 20 42 72 42 41 0 55 4 67
21 8 12 12 29 8 39 -12 32 -61 79 -89 86 -16 4 -38 17 -51 29 -33 33 -78 39
-122 17 -37 -18 -37 -18 -67 5 -16 13 -52 27 -78 32 -52 10 -75 31 -75 68 0
13 -6 39 -14 57 -8 20 -10 39 -5 47 8 14 13 13 81 -16 11 -4 24 1 38 17 11 12
31 35 44 49 16 19 41 31 79 39 31 6 67 20 81 31 31 24 50 80 43 125 -6 33 -5
34 27 34 l33 0 -5 -48z m-431 -408 c27 -50 21 -94 -14 -94 -13 0 -32 -7 -43
-15 -33 -25 -44 -18 -44 28 0 44 18 155 27 171 7 10 45 -36 74 -90z m332 -56
c12 -6 28 -19 35 -30 7 -10 23 -18 35 -18 12 0 27 -4 32 -8 21 -14 55 -65 49
-73 -3 -5 -177 -9 -386 -9 -369 0 -381 1 -365 18 10 10 17 25 17 32 0 24 32
50 62 50 20 0 33 -8 46 -27 9 -16 22 -29 27 -30 6 -1 23 -5 38 -8 21 -6 27 -4
27 9 0 24 36 39 61 26 11 -7 21 -10 22 -8 26 51 63 62 97 28 16 -16 28 -19 55
-14 19 3 35 10 35 16 0 17 49 58 70 58 12 0 31 -5 43 -12z m517 -208 c8 -10
20 -26 26 -36 11 -18 13 -17 30 13 24 42 56 56 89 41 13 -6 27 -19 30 -30 4
-11 16 -18 30 -18 27 0 81 -62 70 -80 -4 -6 -88 -10 -240 -10 -152 0 -236 4
-240 10 -10 16 43 80 65 80 10 0 32 14 49 31 34 33 63 33 91 -1z m-441 -297
l20 -28 26 28 c31 32 46 34 70 7 10 -11 24 -20 31 -20 14 0 54 -38 54 -52 0
-4 -81 -8 -180 -8 -99 0 -180 3 -180 7 0 12 43 53 55 53 7 0 20 9 30 20 25 28
50 25 74 -7z"/>
<path d="M3180 2869 c0 -23 22 -49 40 -49 22 0 25 12 10 41 -11 20 -50 27 -50
8z"/>
<path d="M2647 2656 c-4 -11 5 -16 34 -21 46 -8 57 -2 39 20 -16 19 -66 20
-73 1z"/>
<path d="M3500 2951 c-13 -14 -13 -18 2 -33 15 -15 17 -15 31 0 13 15 13 19
-2 33 -15 14 -17 14 -31 0z"/>
<path d="M3560 2865 c0 -9 5 -15 11 -13 6 2 11 8 11 13 0 5 -5 11 -11 13 -6 2
-11 -4 -11 -13z"/>
<path d="M2310 2665 c-9 -11 -9 -18 3 -29 13 -13 17 -13 30 2 15 16 15 19 -3
29 -14 10 -21 9 -30 -2z"/>
<path d="M2248 2603 c-6 -24 -13 -33 -28 -33 -11 0 -20 -4 -20 -10 0 -5 9 -10
20 -10 13 0 22 -10 29 -32 l9 -33 1 33 c1 27 5 32 26 32 14 0 25 5 25 10 0 6
-11 10 -24 10 -21 0 -25 6 -28 33 l-3 32 -7 -32z"/>
<path d="M2370 2585 c0 -9 5 -15 11 -13 6 2 11 8 11 13 0 5 -5 11 -11 13 -6 2
-11 -4 -11 -13z"/>
<path d="M3769 2395 c-3 -21 -11 -31 -27 -35 -22 -5 -22 -5 -3 -22 11 -9 22
-14 25 -11 3 4 6 -7 6 -23 l1 -29 12 28 c7 16 23 35 37 42 l25 14 -23 1 c-13
0 -20 4 -17 10 3 6 1 10 -5 10 -6 0 -14 10 -19 23 -8 21 -9 21 -12 -8z"/>
<path d="M3877 2314 c-8 -8 1 -24 14 -24 5 0 9 7 9 15 0 15 -12 20 -23 9z"/>
<path d="M3821 2247 c0 -10 -11 -22 -23 -27 -18 -7 -19 -9 -5 -9 10 -1 22 -11
27 -23 l9 -23 0 22 c1 14 9 23 24 26 22 4 22 4 0 6 -14 1 -23 9 -26 24 -3 15
-5 17 -6 4z"/>
<path d="M2545 2011 c0 -19 7 -31 23 -39 20 -9 23 -9 18 5 -4 8 -1 22 6 31 11
13 10 14 -2 10 -8 -3 -22 0 -30 8 -13 11 -15 9 -15 -15z"/>
<path d="M2669 1957 c8 -20 7 -27 -1 -27 -6 0 -8 -3 -5 -7 4 -3 -1 -15 -10
-25 -16 -18 -16 -19 10 -9 20 8 27 7 27 -1 0 -6 3 -8 7 -5 3 4 15 -1 26 -10
19 -18 20 -17 7 6 -10 20 -9 27 10 53 l22 30 -22 -12 c-18 -10 -24 -9 -31 1
-5 8 -9 10 -9 5 0 -5 -9 -1 -21 9 -20 19 -20 19 -10 -8z"/>
<path d="M3275 1899 c-33 -17 -85 -46 -115 -64 -54 -32 -322 -125 -362 -125
-12 0 -64 14 -117 32 -84 28 -109 32 -206 33 -99 0 -116 -3 -160 -26 -31 -15
-67 -46 -93 -80 -53 -65 -395 -703 -381 -708 6 -1 12 -1 13 0 2 2 79 146 171
319 92 173 183 336 201 361 93 128 227 150 459 74 98 -32 124 -37 245 -41 74
-3 167 -12 207 -20 72 -15 72 -15 62 -42 -6 -14 -8 -36 -5 -47 5 -21 3 -21
-127 -21 -138 0 -222 -15 -297 -54 -32 -18 -33 -19 -10 -20 14 0 48 9 75 19
71 27 185 41 287 34 66 -4 99 -2 137 11 27 9 59 16 70 16 11 0 33 11 48 25
l28 25 -24 20 c-13 11 -33 20 -45 20 -50 1 13 18 89 24 45 3 124 17 176 30
115 29 221 41 286 31 47 -7 47 -7 22 -20 -14 -8 -30 -25 -37 -39 -9 -19 -19
-26 -41 -26 -62 0 -419 -129 -578 -209 -160 -80 -233 -101 -350 -101 -54 0
-143 7 -198 15 -148 22 -240 20 -265 -5 -26 -26 -126 -226 -267 -534 -101
-223 -123 -280 -93 -250 5 5 61 123 124 262 64 140 146 312 182 382 62 124 67
130 101 136 20 4 88 1 152 -7 64 -8 179 -14 256 -14 162 0 189 7 359 92 115
58 446 183 531 201 28 6 79 16 115 22 103 18 171 60 123 76 -10 3 -35 13 -56
21 -20 9 -65 19 -100 22 l-62 6 62 34 c72 39 82 55 52 88 -34 35 -78 30 -208
-27 -126 -55 -144 -60 -91 -29 47 28 80 60 80 75 0 7 -18 19 -40 25 -46 14
-91 4 -172 -37 -56 -28 -65 -30 -47 -8 11 14 10 19 -10 35 -34 28 -87 23 -156
-12z m135 1 c18 -11 18 -10 -56 -58 -51 -33 -94 -48 -263 -91 -112 -29 -205
-51 -207 -49 -2 2 49 21 114 42 64 21 142 53 172 72 79 47 182 94 205 94 11 0
27 -4 35 -10z m238 4 c43 -12 29 -24 -128 -114 -84 -47 -331 -124 -365 -113
-11 3 -58 9 -105 12 l-85 6 195 49 c147 37 217 60 285 94 136 68 163 76 203
66z m247 -37 c10 -8 15 -19 11 -25 -11 -18 -175 -102 -200 -102 -13 0 -66 -11
-117 -24 -52 -13 -130 -27 -174 -31 -44 -3 -93 -9 -110 -12 -63 -11 -15 7 94
37 109 29 179 56 356 134 87 39 112 43 140 23z m103 -183 c-3 -3 -29 -11 -58
-19 -51 -13 -52 -13 -34 6 11 13 30 19 57 19 22 0 38 -3 35 -6z m-665 -65 c20
-5 37 -14 37 -20 0 -15 -47 -29 -101 -29 -45 0 -49 2 -49 23 0 13 3 27 7 30
10 10 63 8 106 -4z"/>
<path d="M2557 1901 c-3 -14 2 -20 19 -24 13 -2 24 -1 24 4 0 4 3 14 6 23 5
12 0 16 -19 16 -16 0 -26 -7 -30 -19z"/>
</g>
</svg>
