<?xml version="1.0" encoding="UTF-8"?>
<svg width="700pt" height="700pt" version="1.1" viewBox="0 0 700 700" xmlns="http://www.w3.org/2000/svg">
 <path d="m320.16 398.27c-10.453 9.0938-26.484 21.418-46.078 31.266-21.219 10.668-46.539 18.352-73.41 15.836l-0.023437 0.023437c-3.6094-0.33984-6.2578-3.5391-5.9219-7.1445 0.13672-1.4766 0.75391-2.7891 1.6836-3.8086 2.6406-3.1992 31.602-38.391 42.637-56.195-28.891-12.207-53.082-29.055-70.293-49.012-18.285-21.207-28.75-45.891-28.75-72.297 0-39.934 23.887-75.898 62.508-101.76 37.855-25.348 90.012-41.027 147.49-41.027 57.48 0 109.64 15.68 147.49 41.027 38.621 25.859 62.508 61.824 62.508 101.76s-23.887 75.898-62.508 101.76c-37.855 25.348-90.012 41.027-147.49 41.027-5.3047 0-10.781-0.15234-16.398-0.44922-4.5273-0.23828-9.0078-0.57422-13.441-1zm-51.922 19.578c19.43-9.7656 35.305-22.328 45.137-31.066 1.3516-1.3203 3.2578-2.0508 5.2812-1.8359v0.015626c5.1484 0.54297 10.355 0.96094 15.613 1.2344 4.9805 0.26172 10.223 0.39453 15.734 0.39453 54.875 0 104.44-14.816 140.21-38.77 35.008-23.441 56.664-55.59 56.664-90.887s-21.652-67.445-56.664-90.887c-35.773-23.953-85.34-38.77-140.21-38.77-54.875 0-104.44 14.816-140.21 38.77-35.008 23.441-56.664 55.59-56.664 90.887 0 23.141 9.2891 44.91 25.52 63.734 17.094 19.82 41.828 36.406 71.566 47.988 0.27344 0.082031 0.54688 0.18359 0.81641 0.30469 3.3047 1.4883 4.7773 5.375 3.2891 8.6797l-0.011718-0.003906c-5.207 11.57-27.27 39.742-39.586 55.062 19.344-0.71484 37.641-6.875 53.52-14.855z"/>
</svg>
